<?xml version="1.0" encoding="UTF-8" standalone="no"?>
<svg
   xmlns:dc="http://purl.org/dc/elements/1.1/"
   xmlns:cc="http://creativecommons.org/ns#"
   xmlns:rdf="http://www.w3.org/1999/02/22-rdf-syntax-ns#"
   xmlns:svg="http://www.w3.org/2000/svg"
   xmlns="http://www.w3.org/2000/svg"
   xmlns:sodipodi="http://sodipodi.sourceforge.net/DTD/sodipodi-0.dtd"
   xmlns:inkscape="http://www.inkscape.org/namespaces/inkscape"
   inkscape:version="1.0 (4035a4fb49, 2020-05-01)"
   sodipodi:docname="dollar.svg"
   version="1.1"
   width="512"
   viewBox="0 0 512 512"
   height="512"
   enable-background="new 0 0 512 512"
   id="Capa_1">
  <metadata
     id="metadata435">
    <rdf:RDF>
      <cc:Work
         rdf:about="">
        <dc:format>image/svg+xml</dc:format>
        <dc:type
           rdf:resource="http://purl.org/dc/dcmitype/StillImage" />
      </cc:Work>
    </rdf:RDF>
  </metadata>
  <defs
     id="defs433" />
  <sodipodi:namedview
     inkscape:current-layer="Capa_1"
     inkscape:window-maximized="1"
     inkscape:window-y="-8"
     inkscape:window-x="-8"
     inkscape:cy="231.90588"
     inkscape:cx="256"
     inkscape:zoom="1.6601562"
     showgrid="false"
     id="namedview431"
     inkscape:window-height="1017"
     inkscape:window-width="1920"
     inkscape:pageshadow="2"
     inkscape:pageopacity="0"
     guidetolerance="10"
     gridtolerance="10"
     objecttolerance="10"
     borderopacity="1"
     bordercolor="#666666"
     pagecolor="#ffffff" />
  <g
     id="g428">
    <path
       id="path420"
       d="m 271,328.946 c 17.245,-4.235 30,-15.335 30,-28.092 0,-12.757 -12.755,-23.857 -30,-28.092 z" />
    <path
       id="path422"
       d="m 256,91 c -90.981,0 -165,74.019 -165,165 0,90.981 74.019,165 165,165 90.981,0 165,-74.019 165,-165 C 421,165.019 346.981,91 256,91 Z m 75,209.854 c 0,28.98 -25.809,53.212 -60,58.786 V 376 c 0,8.291 -6.709,15 -15,15 -8.291,0 -15,-6.709 -15,-15 v -16.36 c -34.191,-5.574 -60,-29.806 -60,-58.786 0,-8.291 6.709,-15 15,-15 8.291,0 15,6.709 15,15 0,12.757 12.755,23.857 30,28.092 V 269.64 c -34.191,-5.574 -60,-29.806 -60,-58.786 0,-28.98 25.809,-53.212 60,-58.786 v -16.214 c 0,-8.291 6.709,-15 15,-15 8.291,0 15,6.709 15,15 v 16.214 c 34.191,5.574 60,29.806 60,58.786 0,8.291 -6.709,15 -15,15 -8.291,0 -15,-6.709 -15,-15 0,-12.757 -12.755,-23.857 -30,-28.092 v 59.306 c 34.191,5.573 60,29.805 60,58.786 z" />
    <path
       id="path424"
       d="m 241,182.761 c -17.245,4.235 -30,15.335 -30,28.092 0,12.757 12.755,23.857 30,28.092 z" />
    <path
       id="path426"
       d="M 256,0 C 115.39,0 0,115.39 0,256 0,396.61 115.39,512 256,512 396.61,512 512,396.61 512,256 512,115.39 396.61,0 256,0 Z m 0,451 C 148.48,451 61,363.52 61,256 61,148.48 148.48,61 256,61 c 107.52,0 195,87.48 195,195 0,107.52 -87.48,195 -195,195 z" />
  </g>
</svg>
