<?xml version="1.0" encoding="UTF-8" standalone="no"?>
<svg
   xmlns:dc="http://purl.org/dc/elements/1.1/"
   xmlns:cc="http://creativecommons.org/ns#"
   xmlns:rdf="http://www.w3.org/1999/02/22-rdf-syntax-ns#"
   xmlns:svg="http://www.w3.org/2000/svg"
   xmlns="http://www.w3.org/2000/svg"
   xmlns:sodipodi="http://sodipodi.sourceforge.net/DTD/sodipodi-0.dtd"
   xmlns:inkscape="http://www.inkscape.org/namespaces/inkscape"
   inkscape:version="1.0 (4035a4fb49, 2020-05-01)"
   height="445.12201"
   width="512"
   sodipodi:docname="dumpling.svg"
   xml:space="preserve"
   viewBox="0 0 512 445.12201"
   y="0px"
   x="0px"
   id="Capa_1"
   version="1.1"><metadata
   id="metadata530"><rdf:RDF><cc:Work
       rdf:about=""><dc:format>image/svg+xml</dc:format><dc:type
         rdf:resource="http://purl.org/dc/dcmitype/StillImage" /></cc:Work></rdf:RDF></metadata><defs
   id="defs528" /><sodipodi:namedview
   inkscape:current-layer="Capa_1"
   inkscape:window-maximized="1"
   inkscape:window-y="-8"
   inkscape:window-x="-8"
   inkscape:cy="222.561"
   inkscape:cx="256"
   inkscape:zoom="1.6601562"
   showgrid="false"
   id="namedview526"
   inkscape:window-height="1017"
   inkscape:window-width="1920"
   inkscape:pageshadow="2"
   inkscape:pageopacity="0"
   guidetolerance="10"
   gridtolerance="10"
   objecttolerance="10"
   borderopacity="1"
   bordercolor="#666666"
   pagecolor="#ffffff" />
<g
   transform="translate(0,-33.439)"
   id="g493">
	<g
   id="g491">
		<path
   id="path489"
   d="M 365.955,112.98 359.7,94.201 C 351.007,68.123 322.378,57.582 299.491,66.589 l -0.806,-2.388 C 292.46,45.509 275.702,33.439 256,33.439 c -19.702,0 -36.46,12.07 -42.686,30.762 l -0.806,2.388 C 205.272,63.762 197.186,62.766 189.085,63.996 160.379,68.263 154.559,87.475 146.044,112.98 59.736,152.882 0,234.503 0,313.561 c 0,100.239 101.093,165 256,165 154.907,0 256,-64.761 256,-165 0,-79.058 -59.736,-160.679 -146.045,-200.581 z m -160.35,61.187 -30,30 c -5.86,5.86 -15.351,5.86 -21.211,0 -5.859,-5.859 -5.859,-15.352 0,-21.211 l 30,-30 c 5.859,-5.859 15.352,-5.859 21.211,0 5.859,5.859 5.86,15.351 0,21.211 z M 271,193.561 c 0,8.291 -6.709,15 -15,15 -8.291,0 -15,-6.709 -15,-15 v -30 c 0,-8.291 6.709,-15 15,-15 8.291,0 15,6.709 15,15 z m 86.605,10.606 c -5.86,5.86 -15.351,5.86 -21.211,0 l -30,-30 c -5.859,-5.859 -5.859,-15.352 0,-21.211 5.859,-5.859 15.352,-5.859 21.211,0 l 30,30 c 5.86,5.859 5.86,15.351 0,21.211 z" />
	</g>
</g>
<g
   transform="translate(0,-33.439)"
   id="g495">
</g>
<g
   transform="translate(0,-33.439)"
   id="g497">
</g>
<g
   transform="translate(0,-33.439)"
   id="g499">
</g>
<g
   transform="translate(0,-33.439)"
   id="g501">
</g>
<g
   transform="translate(0,-33.439)"
   id="g503">
</g>
<g
   transform="translate(0,-33.439)"
   id="g505">
</g>
<g
   transform="translate(0,-33.439)"
   id="g507">
</g>
<g
   transform="translate(0,-33.439)"
   id="g509">
</g>
<g
   transform="translate(0,-33.439)"
   id="g511">
</g>
<g
   transform="translate(0,-33.439)"
   id="g513">
</g>
<g
   transform="translate(0,-33.439)"
   id="g515">
</g>
<g
   transform="translate(0,-33.439)"
   id="g517">
</g>
<g
   transform="translate(0,-33.439)"
   id="g519">
</g>
<g
   transform="translate(0,-33.439)"
   id="g521">
</g>
<g
   transform="translate(0,-33.439)"
   id="g523">
</g>
</svg>
